<svg width="17" height="18" viewBox="0 0 17 18" fill="none" xmlns="http://www.w3.org/2000/svg">
<path id="Star 1" d="M9.06382 1.79572L10.2312 5.72539C10.4202 6.36182 11.0052 6.79825 11.6691 6.79825H15.6245C16.098 6.79825 16.3063 7.39514 15.9356 7.6897L12.5859 10.3517C12.1066 10.7325 11.9069 11.3664 12.0812 11.9532L13.3236 16.1356C13.4629 16.6043 12.916 16.9736 12.5333 16.6694L9.51775 14.2731C8.97136 13.8389 8.19769 13.8389 7.6513 14.2731L4.63579 16.6694C4.25303 16.9736 3.7062 16.6043 3.84542 16.1356L5.08786 11.9532C5.26217 11.3664 5.06243 10.7325 4.58319 10.3517L1.23345 7.6897C0.862785 7.39514 1.07107 6.79825 1.54453 6.79825H5.49998C6.16389 6.79825 6.74882 6.36182 6.93788 5.72539L8.10523 1.79572C8.24687 1.3189 8.92218 1.3189 9.06382 1.79572Z" fill="white" stroke="black"/>
</svg>
