<svg width="81" height="82" viewBox="0 0 81 82" fill="none" xmlns="http://www.w3.org/2000/svg">
<g id="logo-2">
<g id="plate 1">
<g clip-path="url(#clip0)">
<g id="Group">
<g id="Group_2">
<path id="Vector" d="M10.0136 7.69682V21.801H7.38843V7.69682H5.00674V21.801H2.38169V7.69682H0V21.801V23.9008V24.2368H0.00892606C0.15926 27.165 2.26174 29.572 5.00689 30.1207V75.2576H7.38858V30.1207C10.1336 29.5718 12.2361 27.165 12.3866 24.2367H12.3955V23.9007V21.8008V7.69682H10.0136ZM6.19766 27.8034C4.20417 27.8034 2.56288 26.2317 2.39579 24.2367H9.99969C9.83229 26.2317 8.19099 27.8034 6.19766 27.8034Z" fill="#E5E5E5"/>
</g>
</g>
<g id="Group_3">
<g id="Group_4">
<path id="Vector_2" d="M78.1934 6.76552C74.6722 8.96463 72.4845 12.9521 72.4845 17.1717V43.8237H77.7961V75.2574H80.1778V43.8235V29.0214V5.52479L78.1934 6.76552ZM77.7963 29.0212V41.3877H74.8662V17.1715C74.8662 14.5091 75.9542 11.9624 77.7963 10.1413V29.0212Z" fill="#E5E5E5"/>
</g>
</g>
</g>
</g>
<g id="world 2">
<g clip-path="url(#clip1)">
<g id="Group_5">
<g id="Group_6">
<path id="Vector_3" d="M57.5056 72.9845C57.1608 72.3711 56.3994 72.1622 55.8045 72.5181L55.7565 72.5466C55.162 72.9027 54.9598 73.6889 55.3046 74.3027C55.5355 74.7135 55.9531 74.943 56.3823 74.943C56.5941 74.943 56.8092 74.8868 57.0058 74.7691L57.0537 74.7406C57.6482 74.3845 57.8504 73.5983 57.5056 72.9845Z" fill="#E5E5E5"/>
</g>
</g>
<g id="Group_7">
<g id="Group_8">
<path id="Vector_4" d="M68.7125 29.8208C64.4577 22.2135 57.5878 16.7721 49.3682 14.4986C41.1489 12.2251 32.5636 13.3919 25.1941 17.7838C17.8247 22.1758 12.5532 29.2674 10.3509 37.752C8.14853 46.2365 9.27876 55.0989 13.5334 62.706C17.3499 69.5297 23.4159 74.7157 30.6137 77.3084C34.0257 78.5373 37.5875 79.1505 41.1439 79.1505C45.0107 79.1505 48.8706 78.4251 52.519 76.9777C53.1607 76.7231 53.4809 75.9798 53.2341 75.3174C52.9874 74.6551 52.2672 74.3242 51.6258 74.5793C41.9143 78.4323 31.4009 76.6816 23.5462 70.5956L24.6613 64.5867L25.1987 64.4066C27.2293 63.7256 28.3446 61.4662 27.6851 59.37L27.2907 58.1174C27.1995 57.8275 27.2 57.5211 27.292 57.2314C27.6379 56.1429 27.5143 54.9519 26.9528 53.9635C26.3913 52.9753 25.4447 52.2824 24.3554 52.0625L21.546 51.4959L16.1254 47.2416C15.8006 46.9867 15.3755 46.9123 14.9874 47.0423L11.8138 48.1065C11.7465 46.9348 11.7455 45.7634 11.8095 44.5983C11.9347 44.7187 12.0162 44.8005 12.0664 44.8542C12.1285 44.961 12.2054 45.0589 12.2955 45.1437C12.5547 45.3874 12.7894 45.4979 13.2824 45.4979C13.7353 45.4977 14.4059 45.4046 15.5131 45.2357C16.5631 45.0755 17.6077 44.895 17.6181 44.8932C18.0367 44.8208 18.3906 44.533 18.5571 44.1302C18.7237 43.7273 18.6797 43.2646 18.4406 42.9025L16.9144 40.5917L19.1004 38.9781C19.2461 38.8706 19.3676 38.732 19.4566 38.5716L22.8451 32.4651L24.211 30.9543C25.6067 29.4101 26.005 27.1509 25.2256 25.1984C24.7658 24.0467 23.9627 23.0879 22.9582 22.4417C24.0461 21.5589 25.206 20.7437 26.4388 20.0092C30.962 17.3134 35.8982 16.0071 40.7824 15.9571L38.5598 18.8351L30.3177 21.8178C29.983 21.9388 29.7141 22.2017 29.579 22.5402L27.2772 28.3001C27.1137 28.7093 27.1657 29.1763 27.4147 29.5366L30.7765 34.3976C30.2951 34.851 29.8264 35.5115 29.2667 36.3315C29.0212 36.6911 28.7894 37.0307 28.6292 37.2212C28.4899 37.3869 28.3505 37.5488 28.2124 37.7092C27.4893 38.5489 26.7417 39.4173 26.2106 40.5773C25.0427 43.129 25.2786 46.0948 26.8261 48.3174C28.3224 50.4664 30.7892 51.5589 33.4221 51.2392C33.8511 51.1873 34.251 51.0851 34.638 50.9862C35.7051 50.7136 36.0432 50.6864 36.3855 51.0171C36.552 51.1781 36.5674 51.2086 36.564 51.7545C36.5616 52.102 36.559 52.5342 36.675 53.0278C36.8609 53.8173 37.3412 54.363 37.7271 54.8014C37.9189 55.0192 38.1173 55.2446 38.1784 55.3958C38.5667 56.3562 38.3976 56.888 38.0272 58.0534C37.9955 58.1531 37.9631 58.2549 37.9306 58.3592C37.3678 60.1574 38.1523 61.9411 38.8444 63.5146C39.0692 64.0256 39.2814 64.508 39.4204 64.9343C40.5396 68.3623 41.3786 69.1473 42.0518 69.4634C42.4045 69.6289 42.7694 69.7015 43.1381 69.7014C44.9324 69.7013 46.8048 67.9816 47.6649 66.8913C48.2051 66.2067 48.3382 65.5212 48.4353 65.0205C48.4837 64.7715 48.5218 64.5749 48.5945 64.4464C48.7058 64.2498 48.8368 64.0974 49.0028 63.9044C49.3365 63.5165 49.7518 63.0339 50.0208 62.159C50.2252 61.4945 50.3737 61.3316 50.8655 60.7909C50.9512 60.6969 51.0424 60.5965 51.1404 60.4865C52.7982 58.6243 52.3713 57.2018 51.9191 55.6956C51.5386 54.4283 52.2041 53.6178 53.8133 52.0709C54.5109 51.4003 55.2321 50.707 55.7896 49.8738C56.0336 49.5092 56.7758 48.3999 56.3165 47.3004C55.8663 46.2224 54.722 46.0412 53.8026 45.8958C53.4395 45.8382 52.8908 45.7514 52.7162 45.6335C51.9461 45.1138 51.4749 44.0291 51.0192 42.98C50.9285 42.7712 50.839 42.5651 50.7483 42.365C50.5864 42.0081 50.4248 41.5762 50.2536 41.119C49.8008 39.9092 49.2876 38.5378 48.4139 37.5818C47.6286 36.7229 46.1482 36.3091 44.8421 35.944C44.4028 35.8213 43.9882 35.7054 43.7147 35.6012C43.4855 35.5138 43.2368 35.498 42.9996 35.5556C42.3639 35.7094 41.9673 35.8788 41.6728 36.1225C41.595 36.1868 41.3646 36.3982 41.2297 36.7379C40.774 36.5122 40.1474 36.0811 39.7617 35.8157C39.7538 35.8102 39.7457 35.8047 39.7377 35.7992C39.8677 35.2623 39.75 34.8315 39.6268 34.5625C38.9315 33.0442 36.6234 33.1631 36.168 33.203C35.9094 33.2254 35.5821 33.2373 35.236 33.2499C34.6923 33.2698 34.0913 33.2922 33.4967 33.3611L33.5273 33.2729C33.9787 31.9748 35.1796 31.1026 36.5157 31.1026H37.2233C37.9106 31.1026 38.468 30.5272 38.468 29.8178C38.468 29.1084 37.9106 28.5331 37.2233 28.5331H36.5157C34.5321 28.5331 32.7156 29.6107 31.6975 31.3069L29.841 28.6224L31.6675 24.0521L39.7214 21.1374C39.9422 21.0575 40.1369 20.9149 40.2829 20.7259L43.8632 16.0901C53.0113 16.9884 61.6225 22.2829 66.5569 31.1053C67.8713 33.4553 68.8435 35.9292 69.4899 38.4596L68.9623 38.9452C68.2736 39.5796 67.87 40.4894 67.8546 41.4417C67.8545 41.4521 67.8542 41.4624 67.8538 41.4726L66.9942 39.0324C66.8661 38.6682 66.6774 38.3343 66.4337 38.0399L64.9003 36.1867C64.3058 35.4683 63.4402 35.0565 62.5252 35.0565H60.6482C59.9819 35.0565 59.373 35.4332 59.0587 36.0393C58.7444 36.6455 58.7787 37.3777 59.1483 37.9497L59.3383 38.2441C58.1254 39.3207 56.7226 40.1822 55.2289 40.7633L52.656 35.6759V34.541C52.656 34.19 52.5168 33.854 52.2707 33.6118L49.9539 31.3286C49.826 31.2027 49.6737 31.1063 49.507 31.0458L47.4214 30.2893C46.7725 30.0536 46.0623 30.4061 45.8345 31.0754C45.6066 31.7449 45.9475 32.4782 46.596 32.7135L48.4288 33.3784L50.1667 35.0908V35.9913C50.1667 36.1983 50.2153 36.4023 50.3081 36.5859L53.5292 42.9548C53.8188 43.5278 54.4763 43.7897 55.0631 43.5656L56.001 43.2087C58.1799 42.3791 60.1995 41.0448 61.8416 39.35C62.2611 38.9169 62.3263 38.2386 61.997 37.7288L61.9308 37.6262H62.5252C62.711 37.6262 62.8869 37.7098 63.0077 37.8558L64.5411 39.709C64.5905 39.7687 64.6287 39.8363 64.6548 39.9105L66.3471 44.7138C66.4924 45.1265 66.832 45.4339 67.247 45.5289C67.3366 45.5494 67.4269 45.5594 67.5166 45.5594C67.8431 45.5594 68.1609 45.4267 68.3967 45.1831L69.2021 44.3516C69.7122 43.8249 70.0634 43.1586 70.2312 42.4199C71.4769 52.7254 67.5623 63.386 59.288 70.0898C58.7471 70.5278 58.6528 71.3354 59.0774 71.8937C59.5017 72.452 60.2839 72.5494 60.8249 72.1111C66.7987 67.2713 70.9026 60.3489 72.3807 52.619C73.8727 44.8147 72.5701 36.7179 68.7125 29.8208ZM15.137 49.694L20.2695 53.7222C20.4212 53.8414 20.5972 53.9228 20.7842 53.9605L23.8777 54.5844C24.2725 54.6641 24.6018 54.9051 24.8054 55.2634C25.0089 55.6215 25.0517 56.0358 24.9265 56.4304C24.6688 57.2416 24.6676 58.0995 24.9231 58.9112L25.3175 60.1637C25.5531 60.9123 25.1545 61.7193 24.4294 61.9626L23.1925 62.3775C22.761 62.5221 22.4401 62.8978 22.3548 63.3576L21.3593 68.7219C19.1706 66.6541 17.249 64.2102 15.6892 61.4214C13.7862 58.0193 12.5973 54.3906 12.0732 50.7215L15.137 49.694ZM22.3911 29.2012L20.9269 30.8206C20.8615 30.8929 20.8044 30.9728 20.7567 31.0587L17.4317 37.0509L14.4766 39.2322C13.9261 39.6385 13.791 40.4239 14.1721 41.0011L15.2773 42.6745C14.6403 42.7725 14.0685 42.8531 13.6884 42.8959C13.6153 42.8236 13.5389 42.7502 13.4599 42.6744C13.164 42.3907 12.7528 42.0118 12.1399 41.4581C13.1508 34.9998 16.1656 28.9156 20.9071 24.2713C21.815 24.5664 22.5601 25.2656 22.9241 26.1775C23.3336 27.2031 23.1242 28.39 22.3911 29.2012ZM32.5395 36.2223C33.0946 35.8998 34.3832 35.8526 35.324 35.8182C35.701 35.8044 36.0573 35.7913 36.3754 35.7638C36.5433 35.7493 36.7298 35.752 36.9057 35.7661C36.8271 35.9743 36.8016 36.2028 36.8357 36.4294C36.8956 36.8281 37.1337 37.1744 37.4783 37.3647C37.7118 37.4937 38.0368 37.7174 38.3808 37.9542C39.3536 38.6236 40.4563 39.3824 41.4922 39.4505C42.4342 39.5136 42.9584 38.9594 43.1829 38.7233C43.2009 38.7046 43.2178 38.6858 43.2357 38.6687C43.3622 38.5623 43.4807 38.4197 43.5688 38.2477C43.7678 38.3064 43.977 38.3649 44.1913 38.4249C44.9283 38.6308 46.3002 39.0142 46.6033 39.3458C47.1416 39.9349 47.5612 41.0562 47.9315 42.0455C48.1186 42.5454 48.2954 43.0172 48.4937 43.4547C48.5788 43.6425 48.6626 43.8358 48.7477 44.0317C49.322 45.3541 49.973 46.853 51.3541 47.7848C51.9803 48.2075 52.748 48.3289 53.4253 48.4362C53.5072 48.4491 53.6011 48.464 53.6964 48.4802C53.2944 49.0592 52.7219 49.6094 52.1171 50.1908C50.5762 51.6721 48.6586 53.5156 49.5417 56.4566C49.9586 57.8454 49.978 57.9954 49.3077 58.7481C49.2164 58.8508 49.1312 58.9443 49.0514 59.032C48.4773 59.6629 48.0239 60.1611 47.6485 61.3818C47.5394 61.7363 47.3981 61.9005 47.1416 62.1986C46.9365 62.4371 46.6809 62.7341 46.4453 63.1505C46.163 63.6493 46.0696 64.1295 45.9948 64.5154C45.921 64.8951 45.8792 65.0856 45.7348 65.2686C45.4061 65.6852 44.7929 66.2901 44.1634 66.7029C43.5784 67.0864 43.2368 67.1388 43.1205 67.1316C42.9876 66.9846 42.5065 66.341 41.7796 64.1139C41.6004 63.5645 41.3517 62.9991 41.1112 62.4524C40.581 61.2471 40.033 60.0008 40.2996 59.149C40.3311 59.0485 40.3622 58.9504 40.3928 58.8544C40.8188 57.5142 41.2208 56.2487 40.476 54.4062C40.2492 53.8451 39.8881 53.4351 39.5698 53.0732C39.3638 52.8393 39.1304 52.5741 39.0944 52.4214C39.0506 52.2352 39.052 52.0203 39.0536 51.7714C39.0578 51.1 39.0643 50.0856 38.0873 49.1412C36.7099 47.8103 35.1037 48.2203 34.0406 48.4917C33.7141 48.5749 33.4057 48.6538 33.1323 48.687C31.3837 48.8985 29.8226 48.2175 28.8479 46.8174C27.8284 45.353 27.6804 43.3824 28.4618 41.6748C28.8401 40.8484 29.4116 40.1845 30.0733 39.4162C30.2178 39.2482 30.3637 39.0789 30.5095 38.9054C30.7523 38.6166 31.0194 38.2254 31.3018 37.8113C31.639 37.3173 32.2669 36.3973 32.5395 36.2223Z" fill="#E5E5E5"/>
</g>
</g>
<g id="Group_9">
<g id="Group_10">
<path id="Vector_5" d="M60.2887 57.5992L59.6898 55.2692C59.559 54.7604 59.1408 54.3854 58.6346 54.323C58.1277 54.2618 57.6361 54.5234 57.3928 54.9861C57.2564 55.2457 57.1335 55.5206 57.0148 55.7865C56.815 56.2338 56.6084 56.6963 56.3934 56.9516C56.2727 57.095 55.9625 57.2496 55.6627 57.3989C54.9461 57.7558 53.9646 58.2447 53.5897 59.4785C53.357 60.2438 53.4438 60.8492 53.5073 61.2912C53.5622 61.6745 53.5749 61.8074 53.4755 62.0484L53.463 62.0784C53.0668 63.0381 52.3297 64.8247 53.3633 66.3436C54.1008 67.4275 54.8763 67.7062 55.4789 67.7062C55.5965 67.7066 55.7078 67.6959 55.8107 67.6786C57.0804 67.4644 58.0348 66.1011 58.8148 63.3879L60.2789 58.2945C60.344 58.0679 60.3474 57.8274 60.2887 57.5992ZM56.4285 62.657C56.0309 64.0403 55.6792 64.6861 55.4761 64.9723C55.4527 64.9415 55.4273 64.9066 55.4002 64.8666C55.1623 64.5169 55.5178 63.6555 55.7531 63.0853L55.7657 63.0553C56.1451 62.1361 56.0436 61.4301 55.9698 60.9146C55.9224 60.5845 55.9055 60.4427 55.9648 60.2478C56.0136 60.0875 56.3053 59.9321 56.7447 59.7131C56.9395 59.616 57.1539 59.5092 57.3704 59.38L56.4285 62.657Z" fill="#E5E5E5"/>
</g>
</g>
<g id="Group_11">
<g id="Group_12">
<path id="Vector_6" d="M42.8632 28.6353L42.7792 28.605C42.1311 28.3706 41.4203 28.7225 41.1928 29.3921C40.9652 30.0618 41.3067 30.7948 41.9553 31.0297L42.0392 31.06C42.1755 31.1094 42.3144 31.1328 42.4512 31.1328C42.965 31.1328 43.446 30.8016 43.6258 30.2729C43.8533 29.6032 43.5119 28.87 42.8632 28.6353Z" fill="#E5E5E5"/>
</g>
</g>
<path id="GF" d="M31.4709 54.6745C30.3989 54.6745 29.4229 54.4425 28.5429 53.9785C27.6789 53.4985 26.9909 52.8025 26.4789 51.8905C25.9669 50.9625 25.7109 49.8585 25.7109 48.5785C25.7109 47.6025 25.8789 46.5145 26.2149 45.3145C26.9509 42.7545 28.1029 40.9465 29.6709 39.8905C31.2549 38.8345 32.9429 38.3065 34.7349 38.3065C36.3669 38.3065 37.8389 38.8985 39.1509 40.0825L39.8709 39.3865C40.2709 39.0505 40.6149 38.8185 40.9029 38.6905C41.1909 38.5625 41.5269 38.4985 41.9109 38.4985C42.3269 38.4985 42.6629 38.6025 42.9189 38.8105C43.1749 39.0025 43.3029 39.2665 43.3029 39.6025C43.3029 39.7305 43.2789 39.8825 43.2309 40.0585L42.3669 43.0825C42.2069 43.5945 42.0149 43.9545 41.7909 44.1625C41.5829 44.3705 41.2949 44.4745 40.9269 44.4745C40.5429 44.4745 40.1989 44.3785 39.8949 44.1865C39.6069 43.9945 39.2709 43.6505 38.8869 43.1545C38.3749 42.4825 37.9189 42.0105 37.5189 41.7385C37.1349 41.4505 36.7109 41.3065 36.2469 41.3065C35.5269 41.3065 34.8389 41.6745 34.1829 42.4105C33.5429 43.1305 32.9829 44.3385 32.5029 46.0345C32.1989 47.1385 32.0469 48.0905 32.0469 48.8905C32.0469 49.7385 32.2069 50.3865 32.5269 50.8345C32.8629 51.2665 33.3269 51.4825 33.9189 51.4825C34.4309 51.4825 34.8229 51.3625 35.0949 51.1225C35.3829 50.8825 35.6069 50.4665 35.7669 49.8745L35.9349 49.2745C36.0149 48.9545 36.0549 48.7385 36.0549 48.6265C36.0549 48.4345 36.0069 48.2985 35.9109 48.2185C35.8309 48.1385 35.6869 48.0505 35.4789 47.9545L34.6389 47.6425C34.2709 47.4985 34.0869 47.2345 34.0869 46.8505C34.0869 46.7385 34.0949 46.6505 34.1109 46.5865C34.1749 46.3785 34.2869 46.2265 34.4469 46.1305C34.6229 46.0345 34.8869 45.9865 35.2389 45.9865L42.4869 46.0105C43.0149 46.0105 43.2789 46.1785 43.2789 46.5145C43.2789 46.5785 43.2629 46.6745 43.2309 46.8025C43.1669 47.0425 43.0629 47.2345 42.9189 47.3785C42.7749 47.5225 42.5669 47.6665 42.2949 47.8105L41.6709 48.1705C41.5109 48.2665 41.3909 48.3625 41.3109 48.4585C41.2309 48.5385 41.1749 48.6425 41.1429 48.7705L39.8709 53.2105C39.7109 53.7385 39.5269 54.0905 39.3189 54.2665C39.1269 54.4425 38.8869 54.5305 38.5989 54.5305H37.5909C37.2069 54.5305 36.8869 54.4505 36.6309 54.2905C36.3909 54.1305 36.1909 53.8185 36.0309 53.3545L35.7909 52.6585C34.6389 54.0025 33.1989 54.6745 31.4709 54.6745ZM57.9446 38.5465C58.5366 38.5465 58.9926 38.6745 59.3126 38.9305C59.6486 39.1865 59.8166 39.5385 59.8166 39.9865C59.8166 40.2105 59.7846 40.4265 59.7206 40.6345L59.0966 42.8665C58.9846 43.2825 58.8006 43.5785 58.5446 43.7545C58.2886 43.9305 57.9526 44.0185 57.5366 44.0185C57.1366 44.0185 56.8166 43.9385 56.5766 43.7785C56.3366 43.6025 56.1606 43.3225 56.0486 42.9385L55.6646 41.5705C55.6006 41.3305 55.5206 41.1705 55.4246 41.0905C55.3286 41.0105 55.1286 40.9705 54.8246 40.9705H52.4246L51.0806 45.7225H51.5366C51.7606 45.7225 51.9526 45.6905 52.1126 45.6265C52.2886 45.5625 52.4726 45.4425 52.6646 45.2665L53.4086 44.6425C53.6806 44.4025 53.9206 44.2345 54.1286 44.1385C54.3526 44.0265 54.5846 43.9705 54.8246 43.9705C55.1286 43.9705 55.3766 44.0585 55.5686 44.2345C55.7766 44.4105 55.8806 44.6585 55.8806 44.9785C55.8806 45.1065 55.8566 45.2585 55.8086 45.4345L54.7526 49.0825C54.5126 49.8665 54.0806 50.2585 53.4566 50.2585C52.9446 50.2585 52.5446 49.9945 52.2566 49.4665L51.8246 48.6505C51.7126 48.4265 51.6086 48.2825 51.5126 48.2185C51.4166 48.1545 51.2726 48.1225 51.0806 48.1225H50.3846L49.3766 51.6985C49.3446 51.7945 49.3286 51.9225 49.3286 52.0825C49.3286 52.3065 49.3766 52.4905 49.4726 52.6345C49.5846 52.7785 49.7446 52.9305 49.9526 53.0905C50.1286 53.2345 50.2486 53.3545 50.3126 53.4505C50.3766 53.5305 50.4086 53.6345 50.4086 53.7625C50.4086 54.0505 50.2806 54.2505 50.0246 54.3625C49.7686 54.4745 49.3926 54.5305 48.8966 54.5305H42.8726C42.4566 54.5305 42.1446 54.4585 41.9366 54.3145C41.7286 54.1545 41.6566 53.9385 41.7206 53.6665C41.7526 53.5225 41.8166 53.4105 41.9126 53.3305C41.9926 53.2345 42.1206 53.1305 42.2966 53.0185C42.5686 52.8585 42.7846 52.6905 42.9446 52.5145C43.1046 52.3385 43.2326 52.0665 43.3286 51.6985L46.2806 41.3545C46.3446 41.1465 46.3766 40.9545 46.3766 40.7785C46.3766 40.5865 46.3446 40.4265 46.2806 40.2985C46.2326 40.1705 46.1526 40.0345 46.0406 39.8905C45.8966 39.6825 45.8246 39.5145 45.8246 39.3865C45.8246 39.3385 45.8406 39.2505 45.8726 39.1225C45.9366 38.9145 46.0806 38.7705 46.3046 38.6905C46.5286 38.5945 46.8566 38.5465 47.2886 38.5465H57.9446Z" fill="#FF6343"/>
</g>
</g>
</g>
<defs>
<clipPath id="clip0">
<rect width="80.1778" height="82" fill="white"/>
</clipPath>
<clipPath id="clip1">
<rect x="9.25129" y="13.363" width="63.7311" height="65.7869" fill="white"/>
</clipPath>
</defs>
</svg>
