<svg id="Layer_1" enable-background="new 0 0 128 128" viewBox="0 0 128 128" xmlns="http://www.w3.org/2000/svg"><g><g><path d="m77.6 32.8c0 11.8-6.7 16.3-13.6 16.3s-13.6-4.5-13.6-16.3 13.6-26.3 13.6-26.3 13.6 14.6 13.6 26.3z" fill="#aac348"/><path d="m91.4 49.5c2.7-15.6-8.6-31.9-8.6-31.9-14.4 12.1-17.3 27.5-17 35.7l5.1 10.7z" fill="#c7e554"/><path d="m93.9 78.3c6.4-8.3 5.1-36.9 2-42.3-15.2 5.4-21 25.5-21 25.5v19.3z" fill="#aac348"/><path d="m73 121.5h-18l3.4-35.2h11.2z" fill="#aac348"/><path d="m36.6 49.5c-2.7-15.6 8.6-31.9 8.6-31.9 14.4 12.1 17.3 27.5 17 35.7l-5.1 10.7z" fill="#c7e554"/><path d="m34.1 78.3c-6.4-8.3-5.1-36.9-2-42.3 15.2 5.4 21 25.5 21 25.5v19.3z" fill="#aac348"/><path d="m77.6 49.4c0 11.8-6.7 16.3-13.6 16.3s-13.6-4.5-13.6-16.3 13.6-26.4 13.6-26.4 13.6 14.6 13.6 26.4z" fill="#c7e554"/><path d="m87.8 70.9c2.7-15.6-8.6-31.9-8.6-31.9-14.4 12.1-17.3 27.5-17 35.7l5.1 10.7z" fill="#aac348"/><path d="m64 89.2c9.9 0 32.4 0 39.8-23.7-23.2-13.6-38.5 11.9-39.8 23.7z" fill="#c7e554"/><path d="m40.2 70.9c-2.7-15.6 8.6-31.9 8.6-31.9 14.4 12.1 17.3 27.5 17 35.7l-5.1 10.7z" fill="#aac348"/><g fill="#c7e554"><path d="m24.2 65.5c7.4 23.7 29.9 23.7 39.8 23.7-1.2-11.8-16.6-37.3-39.8-23.7z"/><path d="m78.8 71.4c0 12.8-7.3 17.7-14.8 17.7s-14.8-4.9-14.8-17.7 14.8-28.6 14.8-28.6 14.8 15.8 14.8 28.6z"/></g></g><path d="m56.2 109.4c-1-.1-1.7-.9-1.6-1.9l.4-3.7c.1-1 .9-1.7 1.9-1.6s1.7.9 1.6 1.9v.1l-.4 3.7c-.1.9-.8 1.6-1.7 1.6-.1-.1-.2-.1-.2-.1zm10 6h.2c1-.1 1.7-.9 1.6-1.9l-.6-6.6c-.1-1-.9-1.7-1.9-1.6s-1.7.9-1.6 1.9v.1l.6 6.6c.1.8.8 1.5 1.7 1.5zm39.3-49.4c-6.2 19.7-22.3 23.8-33.7 24.7l3 30.6c.1 1-.7 1.9-1.7 1.9h-18.1c-1 0-1.8-.8-1.7-1.9l.8-7.9c.1-1 .9-1.7 1.9-1.6s1.7.9 1.6 1.9v.1l-.6 6h14.1l-2.8-28.9c-1.6 0-7 0-8.6 0l-.6 6.1c-.1.9-.8 1.6-1.7 1.6-.1 0-.1 0-.2 0-1-.1-1.7-.9-1.6-1.9l.6-5.9c-11.4-1-27.5-5.1-33.7-24.8-.2-.8.1-1.6.8-2 1.5-.9 3.1-1.7 4.7-2.3-.7-10.6.4-22.7 2.6-26.5.4-.7 1.3-1.1 2.1-.8 1 .3 1.9.8 2.8 1.2 1.6-6.7 4.4-13.1 8.2-18.9.6-.8 1.6-1 2.4-.4 0 0 .1.1.1.1 1.9 1.6 3.7 3.3 5.3 5.1 2.9-5.9 6.7-11.3 11.1-16.1.3-.4.8-.6 1.3-.6.5 0 .9.2 1.3.6 4.4 4.8 8.1 10.3 11.1 16.1 1.7-1.8 3.4-3.6 5.3-5.1.7-.6 1.8-.5 2.5.2 0 0 .1.1.1.1 3.8 5.8 6.6 12.2 8.2 18.9.9-.5 1.8-.9 2.8-1.2.8-.3 1.7 0 2.1.8.8 1.4 1.5 3.9 2 7.5.1 1-.5 1.8-1.5 2s-1.8-.5-2-1.5c-.2-1.6-.5-3.2-1-4.8-.9.4-1.8.9-2.7 1.4-2.7 1.7-5.1 3.9-7.1 6.3 2.1 4.4 3.5 9 4.4 13.8 2.4-.1 4.8.1 7.1.7.2-2.9.2-5.9.1-8.9 0-1 .7-1.8 1.7-1.8s1.8.7 1.8 1.7c.1 3.4.1 6.8-.2 10.1 1.6.7 3.2 1.4 4.7 2.3.8.4 1.1 1.2.9 2zm-26.5-2.8c2.2-1.3 4.5-2.3 7-2.8-1.3-6.6-3.7-13-7.2-18.7-2.7 2.4-5 5.1-7.1 8.1 3.1 4.1 5.5 8.6 7.3 13.4zm-22.8-13.5c-2-3-4.4-5.7-7.1-8.1-3.5 5.8-5.9 12.1-7.2 18.7 2.5.6 4.8 1.5 7 2.8 1.9-4.7 4.3-9.2 7.3-13.4zm6.5-8.1c.7-.7 1.8-.7 2.5 0 .2.2 2 2.2 4.3 5.1 1.4-1.9 2.9-3.7 4.5-5.3-2.7-6.6-7.7-13-10.1-15.7-2.4 2.8-7.4 9.1-10.1 15.7 1.6 1.7 3.1 3.5 4.5 5.4 2.4-3 4.2-4.9 4.4-5.2zm10.4-9.6c1.4 2.2 2.6 4.4 3.7 6.8.4-.4.9-.8 1.3-1.2.4-.3.9-.5 1.4-.4s.9.3 1.2.7c1 1.5 1.9 3.1 2.8 4.7 1.7-2 3.7-3.7 5.9-5.2-1.4-6.1-3.7-11.8-6.9-17.2-3.8 3.5-7 7.4-9.4 11.8zm-19-7.6c1.1 1.4 2.1 2.9 3 4.4 1.7-2.4 3.6-4.8 5.6-7 .3-.4.8-.6 1.3-.6.5 0 .9.2 1.3.6 2 2.2 3.9 4.5 5.6 7 .9-1.5 1.9-3 3-4.4-2.7-6.5-7.6-12.6-9.9-15.3-2.3 2.7-7.1 8.8-9.9 15.3zm-15.4 13c2.2 1.5 4.1 3.2 5.9 5.2.8-1.6 1.8-3.2 2.8-4.7.3-.4.7-.7 1.2-.7.5-.1 1 .1 1.4.4.5.4.9.8 1.3 1.2 1.1-2.3 2.3-4.6 3.7-6.8-2.5-4.4-5.6-8.4-9.4-11.7-3.2 5.3-5.5 11.1-6.9 17.1zm-7.2 23.2c2.3-.6 4.7-.8 7.1-.7.8-4.8 2.3-9.4 4.4-13.8-2-2.5-4.4-4.6-7.1-6.3-.9-.5-1.8-1-2.7-1.5-1.4 4-2.2 13.4-1.7 22.3zm21.6 26.3c-1.1-1-2.1-2.2-2.9-3.6-.5-.8-.2-1.9.7-2.4.8-.5 1.9-.2 2.3.6 2.2 3.7 6 5.9 10.8 5.9 9.7 0 13-8.4 13-16 0-9.8-9.5-21.8-13-26-3.5 4.1-13 16.2-13 26 0 .9 0 1.7.1 2.5.1 1-.6 1.8-1.6 1.9s-1.8-.6-1.9-1.6c-.1-.9-.1-1.8-.1-2.8 0-1.6.2-3.2.6-4.7-6.9-4.6-15.1-4.3-21.7-.4 5.2 14.9 16.8 19.3 26.7 20.6zm48.6-20.6c-3.8-2.2-13-5.5-21.7.4.4 1.5.5 3.1.6 4.7 0 7.4-2.3 12.4-5.6 15.4 9.8-1.2 21.4-5.6 26.7-20.5z" fill="#190d28"/></g></svg>